<svg fill="#0f88eb" height="1172" viewBox="0 .529 200.285 90.919" width="2500" xmlns="http://www.w3.org/2000/svg"><path d="m53.29 80.035 7.32.002 2.41 8.24 13.128-8.24h15.477v-67.98h-38.335zm7.79-60.598h22.756v53.22h-8.73l-8.718 5.473-1.587-5.46-3.72-.012v-53.22zm-14.262 23.725h-16.35c.545-8.467.687-16.12.687-22.955h15.987s.615-7.05-2.68-6.97h-27.655c1.09-4.1 2.46-8.332 4.1-12.708 0 0-7.523 0-10.085 6.74-1.06 2.78-4.128 13.48-9.592 24.41 1.84-.2 7.927-.37 11.512-6.94.66-1.84.785-2.08 1.605-4.54h9.02c0 3.28-.374 20.9-.526 22.95h-16.331c-3.67 0-4.863 7.38-4.863 7.38h20.493c-1.375 15.581-8.755 28.711-22.14 39.091 6.403 1.828 12.784-.29 15.937-3.094 0 0 7.182-6.53 11.12-21.64l16.863 20.294s2.473-8.402-.388-12.496c-2.37-2.788-8.768-10.33-11.496-13.064l-4.57 3.627c1.363-4.368 2.183-8.61 2.46-12.71h19.264s-.027-7.38-2.372-7.38zm128.752-.502c6.51-8.013 14.054-18.302 14.054-18.302s-5.827-4.625-8.556-1.27c-1.874 2.548-11.51 15.063-11.51 15.063l6.012 4.51zm-46.903-18.462c-2.814-2.577-8.096.667-8.096.667s12.35 17.2 12.85 17.953l6.08-4.29s-8.02-11.752-10.83-14.33zm71.323 22.302c-6.18 0-40.908.292-40.953.292v-31.56c1.503 0 3.882-.124 7.14-.376 12.773-.753 21.914-1.25 27.427-1.504 0 0 3.817-8.496-.185-10.45-.96-.37-7.24 1.43-7.24 1.43s-51.63 5.153-72.61 5.64c.5 2.756 2.38 5.336 4.93 6.11 4.16 1.087 7.09.53 15.36.277 7.76-.5 13.65-.76 17.66-.76v31.19h-41.71s.88 6.97 7.97 7.14h33.73v22.16c0 4.364-3.498 6.87-7.65 6.6-4.4.034-8.15-.36-13.027-.566.623 1.24 1.977 4.496 6.035 6.824 3.087 1.502 5.054 2.053 8.13 2.053 9.237 0 14.27-5.4 14.027-14.16v-22.91h38.235c3.026 0 2.72-7.432 2.72-7.432z"/></svg>